<svg version="1.1" id="Layer_1" xmlns="http://www.w3.org/2000/svg" xmlns:xlink="http://www.w3.org/1999/xlink" x="0px" y="0px"
	 width="100%" viewBox="0 0 360 360" enable-background="new 0 0 360 360" xml:space="preserve">
<path fill="#010101" opacity="1.000000" stroke="none" 
	d="
M361.000000,5.000000 
	C361.000000,122.355347 361.000000,239.710693 360.533020,357.535583 
	C240.377365,358.003418 120.688683,358.001709 1.000000,358.000000 
	C1.000000,240.644653 1.000000,123.289314 1.466041,5.466454 
	C121.621391,4.999291 241.310699,4.999646 361.000000,5.000000 
M300.621368,99.423225 
	C301.550415,96.060051 302.679077,92.737091 303.366425,89.325226 
	C304.743317,82.490562 305.336273,75.689934 299.762512,70.143303 
	C294.369812,64.776855 288.383728,66.829071 282.035645,68.198387 
	C275.167206,69.679955 268.022980,70.169548 260.974030,70.440071 
	C255.021561,70.668510 248.891357,69.007355 243.089630,69.867554 
	C229.837021,71.832466 217.002426,71.477585 204.122375,67.524117 
	C196.977249,65.330948 190.516800,68.782600 187.041122,75.395226 
	C184.067841,81.052025 184.769165,86.922913 185.750259,92.912102 
	C186.519409,97.607430 187.325775,102.408447 187.140869,107.124275 
	C186.789841,116.076057 185.129166,125.000229 185.125961,133.936264 
	C185.121277,147.021729 194.373306,153.650467 206.966736,150.284836 
	C209.179916,149.693359 211.133774,148.092316 213.351791,147.565979 
	C218.248459,146.404007 223.206070,145.364502 228.197922,144.779358 
	C232.348984,144.292786 236.641113,144.920486 240.766312,144.327759 
	C244.743973,143.756226 246.526962,144.855225 245.995743,148.894745 
	C245.781357,150.524887 245.368149,152.208038 244.658310,153.680435 
	C241.199280,160.855286 237.750336,168.042007 234.010696,175.071777 
	C231.903183,179.033463 230.366577,182.573715 232.469818,187.267456 
	C233.248123,189.004364 232.068695,193.293594 230.553818,194.093948 
	C223.885513,197.617081 222.601059,203.870285 220.845825,210.120026 
	C219.997894,213.139160 218.824081,216.085373 217.583450,218.972488 
	C211.565704,232.976593 205.415176,246.924042 199.472580,260.959656 
	C198.535263,263.173492 197.807159,265.797882 198.041367,268.125916 
	C198.771530,275.383850 200.124985,282.576447 201.018372,289.821320 
	C201.871231,296.737457 205.577606,300.037781 212.484283,300.389435 
	C217.559631,300.647888 222.590103,301.695770 227.662491,302.144104 
	C230.067551,302.356659 232.770233,302.614716 234.911163,301.770081 
	C241.638214,299.116150 248.208145,299.781647 254.980667,301.347839 
	C259.794861,302.461090 264.737274,303.619507 269.628082,303.644104 
	C275.238373,303.672394 280.870880,302.581940 286.464935,301.777374 
	C294.888306,300.565887 299.288971,295.407593 298.108185,287.984894 
	C296.589081,278.435516 294.997528,268.944702 296.847809,259.226959 
	C297.741119,254.535309 295.172058,251.374695 290.892670,250.184235 
	C288.136261,249.417465 284.746887,248.955765 282.169678,249.861313 
	C271.832275,253.493484 261.622833,257.067017 250.356857,255.164978 
	C248.302902,254.818207 246.065140,255.560074 243.107132,255.888916 
	C244.123642,254.064743 244.466370,253.122818 245.074860,252.406693 
	C254.354568,241.485855 260.981293,229.169678 265.154083,215.443283 
	C265.733643,213.536697 268.184265,212.262466 269.515778,210.503967 
	C271.002319,208.540680 272.385986,206.449875 273.466949,204.244247 
	C274.383057,202.374969 274.600494,200.167465 275.487122,198.278641 
	C277.249146,194.524826 279.341095,190.927139 281.150482,187.194077 
	C285.772491,177.658035 289.365112,167.608261 296.724121,159.541809 
	C302.170654,153.571686 303.673981,146.229538 301.138367,138.569107 
	C296.911011,125.797615 297.029816,113.082214 300.621368,99.423225 
M49.074009,193.811615 
	C49.094067,195.973175 48.943363,198.152298 49.163666,200.293243 
	C50.129795,209.682251 49.353748,219.792709 52.705994,228.256729 
	C56.896500,238.837250 58.146320,249.252701 58.749969,260.260406 
	C59.098961,266.624420 61.050629,272.979584 62.896339,279.154785 
	C64.131424,283.287018 67.474861,285.517090 72.056152,285.531921 
	C76.580322,285.546600 79.706200,283.508789 81.423248,279.396851 
	C82.700630,276.337799 83.718910,273.171021 84.977303,270.103394 
	C86.043259,267.504883 86.630959,264.192841 88.576042,262.568726 
	C94.542618,257.586700 95.155075,250.875626 95.648468,244.072906 
	C95.997337,239.262802 95.734169,234.411270 95.901382,229.583664 
	C95.975533,227.442825 96.133003,225.216324 96.787758,223.202698 
	C98.128036,219.080826 101.205055,218.330246 103.723206,221.766281 
	C106.230988,225.188217 108.463013,229.016708 109.856972,233.002335 
	C111.933495,238.939651 114.582748,244.078568 119.551895,248.286819 
	C126.673637,254.318100 131.508545,262.017090 133.549347,271.344574 
	C134.218994,274.405121 135.382156,277.410645 136.699448,280.266144 
	C140.043854,287.515717 146.913437,290.399750 153.549896,287.566956 
	C159.573914,284.995636 161.757889,277.716003 159.223816,270.446777 
	C157.882523,266.599121 157.436569,262.435608 156.630524,258.405853 
	C154.553024,248.019531 153.725708,237.177002 150.110809,227.359253 
	C146.070099,216.385025 139.356262,206.414398 134.133926,195.844864 
	C132.428085,192.392395 130.459976,188.283356 130.868195,184.734116 
	C131.751404,177.055435 140.548279,169.450867 148.324722,168.462616 
	C153.261841,167.835190 155.681091,164.963303 156.405807,160.380707 
	C156.715912,158.419815 156.629059,156.393906 156.692490,154.396606 
	C156.979477,145.360565 160.097137,137.666550 166.615723,131.164139 
	C169.348694,128.437943 172.256577,124.915993 172.977173,121.332024 
	C174.871399,111.910736 176.209229,102.283234 176.631531,92.687836 
	C177.025330,83.740341 169.912903,78.110611 160.996033,78.656891 
	C158.275864,78.823532 155.382172,78.533089 152.775421,77.756004 
	C142.569046,74.713478 132.769272,79.893936 130.393799,90.211655 
	C128.901230,96.694550 128.455124,103.204666 125.246605,109.485649 
	C121.171936,117.462212 119.280533,126.521881 115.804581,134.845978 
	C112.650337,142.399643 106.482224,147.313553 98.258163,151.836334 
	C101.535004,141.687912 100.662361,132.675613 99.183998,123.608513 
	C98.887657,121.790955 99.399780,119.430725 100.402992,117.879333 
	C106.542145,108.385704 102.542442,99.144058 99.713295,90.040787 
	C98.289169,85.458427 94.575882,82.557838 89.345314,83.109497 
	C80.890373,84.001251 73.742165,81.179146 66.971268,76.362534 
	C61.299820,72.328049 53.986336,74.760780 51.628380,81.371956 
	C49.378769,87.679359 47.375225,93.801796 48.574783,101.049828 
	C50.326767,111.635811 50.709072,122.493378 51.049236,133.254959 
	C51.363312,143.191055 51.017544,153.159119 50.659023,163.102173 
	C50.300766,173.037888 49.566311,182.960022 49.074009,193.811615 
z"/>
<path fill="#131617" opacity="1.000000" stroke="none" 
	d="
M361.000000,4.500002 
	C241.310699,4.999646 121.621391,4.999291 1.466041,4.999469 
	C1.000000,3.666667 1.000000,2.333333 1.000000,1.000000 
	C119.666664,1.000000 238.333328,0.998687 357.000000,1.011045 
	C359.016968,1.011256 361.928955,-0.016390 361.000000,4.500002 
z"/>
<path fill="#121413" opacity="1.000000" stroke="none" 
	d="
M1.000000,358.500000 
	C120.688683,358.001709 240.377365,358.003418 360.533020,358.002563 
	C361.498810,360.498810 360.501984,361.086060 357.999481,361.066772 
	C341.333832,360.938019 324.666656,361.000000 308.000000,361.000000 
	C207.000015,361.000000 106.000038,361.008972 5.000179,360.896790 
	C3.747326,360.895386 0.685130,362.963165 1.000000,358.500000 
z"/>
<path fill="#E9E9E9" opacity="1.000000" stroke="none" 
	d="
M300.572510,99.836868 
	C297.029816,113.082214 296.911011,125.797615 301.138367,138.569107 
	C303.673981,146.229538 302.170654,153.571686 296.724121,159.541809 
	C289.365112,167.608261 285.772491,177.658035 281.150482,187.194077 
	C279.341095,190.927139 277.249146,194.524826 275.487122,198.278641 
	C274.600494,200.167465 274.383057,202.374969 273.466949,204.244247 
	C272.385986,206.449875 271.002319,208.540680 269.515778,210.503967 
	C268.184265,212.262466 265.733643,213.536697 265.154083,215.443283 
	C260.981293,229.169678 254.354568,241.485855 245.074860,252.406693 
	C244.466370,253.122818 244.123642,254.064743 243.107132,255.888916 
	C246.065140,255.560074 248.302902,254.818207 250.356857,255.164978 
	C261.622833,257.067017 271.832275,253.493484 282.169678,249.861313 
	C284.746887,248.955765 288.136261,249.417465 290.892670,250.184235 
	C295.172058,251.374695 297.741119,254.535309 296.847809,259.226959 
	C294.997528,268.944702 296.589081,278.435516 298.108185,287.984894 
	C299.288971,295.407593 294.888306,300.565887 286.464935,301.777374 
	C280.870880,302.581940 275.238373,303.672394 269.628082,303.644104 
	C264.737274,303.619507 259.794861,302.461090 254.980667,301.347839 
	C248.208145,299.781647 241.638214,299.116150 234.911163,301.770081 
	C232.770233,302.614716 230.067551,302.356659 227.662491,302.144104 
	C222.590103,301.695770 217.559631,300.647888 212.484283,300.389435 
	C205.577606,300.037781 201.871231,296.737457 201.018372,289.821320 
	C200.124985,282.576447 198.771530,275.383850 198.041367,268.125916 
	C197.807159,265.797882 198.535263,263.173492 199.472580,260.959656 
	C205.415176,246.924042 211.565704,232.976593 217.583450,218.972488 
	C218.824081,216.085373 219.997894,213.139160 220.845825,210.120026 
	C222.601059,203.870285 223.885513,197.617081 230.553818,194.093948 
	C232.068695,193.293594 233.248123,189.004364 232.469818,187.267456 
	C230.366577,182.573715 231.903183,179.033463 234.010696,175.071777 
	C237.750336,168.042007 241.199280,160.855286 244.658310,153.680435 
	C245.368149,152.208038 245.781357,150.524887 245.995743,148.894745 
	C246.526962,144.855225 244.743973,143.756226 240.766312,144.327759 
	C236.641113,144.920486 232.348984,144.292786 228.197922,144.779358 
	C223.206070,145.364502 218.248459,146.404007 213.351791,147.565979 
	C211.133774,148.092316 209.179916,149.693359 206.966736,150.284836 
	C194.373306,153.650467 185.121277,147.021729 185.125961,133.936264 
	C185.129166,125.000229 186.789841,116.076057 187.140869,107.124275 
	C187.325775,102.408447 186.519409,97.607430 185.750259,92.912102 
	C184.769165,86.922913 184.067841,81.052025 187.041122,75.395226 
	C190.516800,68.782600 196.977249,65.330948 204.122375,67.524117 
	C217.002426,71.477585 229.837021,71.832466 243.089630,69.867554 
	C248.891357,69.007355 255.021561,70.668510 260.974030,70.440071 
	C268.022980,70.169548 275.167206,69.679955 282.035645,68.198387 
	C288.383728,66.829071 294.369812,64.776855 299.762512,70.143303 
	C305.336273,75.689934 304.743317,82.490562 303.366425,89.325226 
	C302.679077,92.737091 301.550415,96.060051 300.572510,99.836868 
z"/>
<path fill="#FBFBFB" opacity="1.000000" stroke="none" 
	d="
M49.035393,193.349854 
	C49.566311,182.960022 50.300766,173.037888 50.659023,163.102173 
	C51.017544,153.159119 51.363312,143.191055 51.049236,133.254959 
	C50.709072,122.493378 50.326767,111.635811 48.574783,101.049828 
	C47.375225,93.801796 49.378769,87.679359 51.628380,81.371956 
	C53.986336,74.760780 61.299820,72.328049 66.971268,76.362534 
	C73.742165,81.179146 80.890373,84.001251 89.345314,83.109497 
	C94.575882,82.557838 98.289169,85.458427 99.713295,90.040787 
	C102.542442,99.144058 106.542145,108.385704 100.402992,117.879333 
	C99.399780,119.430725 98.887657,121.790955 99.183998,123.608513 
	C100.662361,132.675613 101.535004,141.687912 98.258163,151.836334 
	C106.482224,147.313553 112.650337,142.399643 115.804581,134.845978 
	C119.280533,126.521881 121.171936,117.462212 125.246605,109.485649 
	C128.455124,103.204666 128.901230,96.694550 130.393799,90.211655 
	C132.769272,79.893936 142.569046,74.713478 152.775421,77.756004 
	C155.382172,78.533089 158.275864,78.823532 160.996033,78.656891 
	C169.912903,78.110611 177.025330,83.740341 176.631531,92.687836 
	C176.209229,102.283234 174.871399,111.910736 172.977173,121.332024 
	C172.256577,124.915993 169.348694,128.437943 166.615723,131.164139 
	C160.097137,137.666550 156.979477,145.360565 156.692490,154.396606 
	C156.629059,156.393906 156.715912,158.419815 156.405807,160.380707 
	C155.681091,164.963303 153.261841,167.835190 148.324722,168.462616 
	C140.548279,169.450867 131.751404,177.055435 130.868195,184.734116 
	C130.459976,188.283356 132.428085,192.392395 134.133926,195.844864 
	C139.356262,206.414398 146.070099,216.385025 150.110809,227.359253 
	C153.725708,237.177002 154.553024,248.019531 156.630524,258.405853 
	C157.436569,262.435608 157.882523,266.599121 159.223816,270.446777 
	C161.757889,277.716003 159.573914,284.995636 153.549896,287.566956 
	C146.913437,290.399750 140.043854,287.515717 136.699448,280.266144 
	C135.382156,277.410645 134.218994,274.405121 133.549347,271.344574 
	C131.508545,262.017090 126.673637,254.318100 119.551895,248.286819 
	C114.582748,244.078568 111.933495,238.939651 109.856972,233.002335 
	C108.463013,229.016708 106.230988,225.188217 103.723206,221.766281 
	C101.205055,218.330246 98.128036,219.080826 96.787758,223.202698 
	C96.133003,225.216324 95.975533,227.442825 95.901382,229.583664 
	C95.734169,234.411270 95.997337,239.262802 95.648468,244.072906 
	C95.155075,250.875626 94.542618,257.586700 88.576042,262.568726 
	C86.630959,264.192841 86.043259,267.504883 84.977303,270.103394 
	C83.718910,273.171021 82.700630,276.337799 81.423248,279.396851 
	C79.706200,283.508789 76.580322,285.546600 72.056152,285.531921 
	C67.474861,285.517090 64.131424,283.287018 62.896339,279.154785 
	C61.050629,272.979584 59.098961,266.624420 58.749969,260.260406 
	C58.146320,249.252701 56.896500,238.837250 52.705994,228.256729 
	C49.353748,219.792709 50.129795,209.682251 49.163666,200.293243 
	C48.943363,198.152298 49.094067,195.973175 49.035393,193.349854 
z"/>
</svg>